<?xml version="1.0" encoding="utf-8"?>
<!-- Svg Vector Icons : http://www.onlinewebfonts.com/icon -->
<!DOCTYPE svg PUBLIC "-//W3C//DTD SVG 1.1//EN" "http://www.w3.org/Graphics/SVG/1.1/DTD/svg11.dtd">
<svg version="1.1" xmlns="http://www.w3.org/2000/svg" xmlns:xlink="http://www.w3.org/1999/xlink" x="0px" y="0px" viewBox="0 0 1000 1000" enable-background="new 0 0 1000 1000" xml:space="preserve">
<metadata> Svg Vector Icons : http://www.onlinewebfonts.com/icon </metadata>
<g><g transform="translate(0.000000,511.000000) scale(0.100000,-0.100000)">
<path style="fill:#fff;" d="M6013.4,4981.1c-27-19.3-86.8-144.7-167.8-355L5716.3,4302l-187.1,46.3c-2124,515.1-4273-897-4674.3-3071.2c-50.2-275.9-69.4-762-38.6-1051.4c135-1302.2,937.6-2463.5,2106.6-3048c152.4-75.2,279.7-144.7,283.6-154.3c3.9-7.7-46.3-146.6-111.9-306.7c-115.7-293.2-137-385.8-90.7-420.5c36.7-29,306.7-115.8,534.4-167.8c256.6-61.7,545.9-102.3,835.3-119.6l225.7-13.5v-266.2v-268.2h-391.6c-385.8,0-393.5,0-434.1-44.4c-54-57.9-54-100.3,5.8-158.2l46.3-48.2H4719c997.4,0,980-1.9,980,125.4c0,115.8-32.8,125.4-466.9,125.4h-382v275.9v275.9l227.6,23.2c1030.2,102.2,2041,588.4,2791.5,1344.6C8457.6-2029.4,8878.2-1280.9,9073-488c100.3,418.6,127.3,638.5,125.4,1109.3c0,478.4-27,715.7-133.1,1138.2c-165.9,659.8-515.1,1342.7-951.1,1863.5c-308.7,366.5-900.9,875.8-962.7,825.7c-21.2-17.4-23.1-17.4-13.5,7.7c13.5,36.7-100.3,113.8-401.3,273.9c-192.9,100.3-613.5,279.7-659.8,279.7C6065.5,5010,6036.6,4996.5,6013.4,4981.1z M6289.3,4670.5c542.1-239.2,949.1-509.3,1346.6-895.1c380-368.5,650.1-736.9,881.6-1205.7C8828,1940.7,8965,1360.1,8966.9,659.8c1.9-727.3-144.7-1342.7-474.6-2006.3C8067.9-2197.2,7394.7-2864.7,6528.5-3293c-468.8-231.5-1055.2-401.3-1495.1-430.2l-183.3-11.6v250.8v250.8l162,13.5c549.8,44.4,1221.2,281.7,1709.2,603.8C7757.4-1931,8390.1-860.4,8476.9,358.9c90.7,1273.2-493.8,2540.7-1533.7,3318.1c-287.5,216.1-490,329.9-929.9,524.7l-61.7,27l96.5,246.9c54,135,104.2,245,113.8,245C6169.7,4720.6,6227.6,4697.5,6289.3,4670.5z M4863.7,4199.8c148.5-13.5,219.9-28.9,289.4-65.6c156.3-81,152.4-69.5,65.6-202.6c-94.5-148.5-110-212.2-71.4-289.4c52.1-98.4,42.5-121.5-40.5-104.2c-40.5,7.7-113.8,15.4-164,15.4c-108,0-167.8-48.2-297.1-241.1c-46.3-69.5-104.2-148.5-125.4-177.5c-30.9-38.6-42.4-81-44.4-173.6l-3.9-121.5l-135-11.6c-156.3-15.4-208.3-40.5-243.1-123.5c-57.9-137,5.8-443.7,106.1-518.9c48.2-34.7,79.1-40.5,235.4-36.7c192.9,1.9,198.7,3.9,491.9,165.9c160.1,86.8,167.8,88.7,250.8,67.5c48.2-11.6,104.2-32.8,125.4-48.2c65.6-44.4,152.4-28.9,260.4,42.4c55.9,36.7,104.2,67.5,110,67.5c5.8,0,30.9-17.4,57.9-38.6c30.9-25.1,79.1-38.6,129.2-38.6c73.3,0,378.1,55.9,478.4,86.8c38.6,13.5,34.7,5.8-28.9-65.6c-77.2-84.9-81-100.3-52.1-156.3c15.4-30.9,804.5-763.9,1008.9-941.4c56-46.3,90.7-61.7,148.6-61.7c191,0,194.8,160.1,19.3,715.7c-40.5,131.2-73.3,241.1-69.4,243.1c3.8,3.9,63.7-21.2,135-54c121.5-55.9,135-57.9,218-36.7c81,19.3,94.5,17.4,117.7-13.5c55.9-71.4,160.1-318.3,264.3-621.2c81-239.2,110-356.9,125.4-507.4c61.7-611.5-40.5-1244.3-299-1832.7c-343.4-779.4-1020.5-1456.5-1799.9-1799.9c-1007-441.8-2172.2-414.8-3119.4,73.3l-229.6,119.6l-52.1,144.7c-86.8,245-86.8,254.7-5.8,299c123.5,65.6,152.4,187.1,90.7,362.7c-32.8,92.6-32.8,96.5,21.2,302.9c61.7,237.3,55.9,289.4-44.4,428.3c-123.5,171.7-318.3,308.7-617.3,432.1c-98.4,40.5-192.9,92.6-206.4,113.8c-19.3,28.9-21.2,75.2-9.6,181.3c7.7,79.1,9.6,165.9,5.8,191c-5.8,25.1-75.2,117.7-156.3,204.5c-81,86.8-185.2,214.1-233.4,281.7c-48.2,67.5-142.8,181.3-212.2,252.7c-100.3,106.1-142.8,137-218,156.3l-92.6,25.1l11.6,115.7c7.7,63.7,32.8,218,57.9,341.5c316.4,1562.6,1637.8,2727.8,3235.2,2849.3C4632.2,4219.1,4643.7,4219.1,4863.7,4199.8z M5845.6,4004.9c385.8-133.1,771.7-349.2,1097.7-615.4c277.8-225.7,609.6-613.5,792.9-920.2l48.2-82.9l-63.7-30.9c-63.7-28.9-67.5-28.9-246.9,57.9c-191,94.5-306.8,113.8-376.2,61.7c-57.9-42.4-42.4-138.9,75.2-513.1c57.9-185.2,104.2-337.6,102.2-339.5c-3.9-3.9-600,534.4-692.6,625c-32.8,30.9-30.9,38.6,13.5,127.3c61.7,123.5,61.7,204.5-1.9,279.7c-67.5,81-148.5,92.6-314.5,42.4c-73.3-23.1-154.3-40.5-179.4-40.5c-27,0-88.7-11.6-137-27c-81-25.1-90.7-23.2-121.6,9.6c-81,88.7-218,84.9-345.3-11.6l-67.5-52.1l-121.5,32.8c-237.3,65.6-241.1,65.6-480.4-69.5c-189.1-106.1-329.9-158.2-463-169.8c-19.3-1.9-75.2,191-61.7,212.2c5.8,9.6,79.1,17.4,162,17.4c137,0,158.2,5.8,212.2,52.1c59.8,48.2,61.7,55.9,52.1,156.3c-5.8,55.9-21.2,113.8-30.9,127.3c-15.4,19.3-13.5,32.8,5.8,48.2c15.4,13.5,73.3,92.6,127.3,175.6c55.9,84.9,108,154.3,117.7,154.3c9.6,0,75.2-9.6,148.5-23.2c148.6-25.1,218-13.5,273.9,46.3c42.5,46.3,52.1,177.5,19.3,312.5c-15.4,73.3-11.6,83,79.1,212.2c52.1,73.3,94.5,154.3,94.5,179.4c0,25.1,11.6,44.4,27,44.4C5606.4,4084,5720.2,4049.3,5845.6,4004.9z M1204.1,520.9c55.9-61.7,148.5-177.5,206.4-260.4c55.9-81,150.5-191,206.4-243.1l104.2-94.5l-9.6-164c-17.4-277.8,38.6-362.7,314.5-478.4c84.9-34.7,192.9-82.9,243.1-108c119.6-59.8,341.5-250.8,355-302.9c5.8-25.1-9.6-113.8-32.8-196.8c-52.1-187.1-55.9-343.4-13.5-430.2l32.8-61.7l-77.2-40.5c-121.5-61.7-160.1-200.6-100.3-356.9c19.3-52.1-77.2,21.2-273.9,208.4C1505-1390.9,1111.5-545.9,1051.7,356.9c-9.6,135-11.6,250.8-7.7,260.4C1063.3,652.1,1111.5,623.1,1204.1,520.9z M3644.4-3102c241.1-67.5,482.3-108,733.1-121.5l212.2-13.5l5.8-254.6l5.8-256.6h-137c-358.8,0-1196.1,152.4-1196.1,218c0,32.8,179.4,476.5,191,476.5C3465-3053.8,3549.9-3075,3644.4-3102z"/>
<path style="fill:#fff;" d="M5014.1,1890.6c-138.9-28.9-248.9-81-372.3-171.7c-297.1-223.8-561.4-538.2-640.5-765.9c-54-150.5-81-461.1-57.9-646.3c54-430.2,246.9-667.5,619.3-765.9c82.9-23.2,108-19.3,291.3,30.9c347.2,98.4,580.7,94.5,603.8-9.6c5.8-21.2,23.2-127.3,38.6-233.4c21.2-146.6,46.3-223.8,100.3-327.9l69.4-135l1.9-356.9c1.9-331.8,5.8-368.5,56-528.6c28.9-92.6,52.1-196.8,52.1-231.5c0-152.4,104.2-183.3,302.9-90.7c385.8,183.3,700.3,503.5,839.2,854.6c27,65.6,77.2,243.1,111.9,391.6c82.9,356.9,129.2,532.4,250.8,926c125.4,409,142.8,588.4,73.3,723.4c-34.7,69.5-61.7,92.6-127.3,115.8c-63.7,25.1-177.5,129.2-559.5,520.9l-478.4,490l-239.2,13.5c-279.7,15.4-382,38.6-491.9,113.8C5336.3,1890.6,5164.6,1923.4,5014.1,1890.6z M5340.1,1587.7c121.5-81,399.3-144.7,642.4-146.6c119.6,0,102.2,15.4,681-592.2c331.8-349.2,399.3-410.9,445.6-410.9c32.8,0,56-9.6,56-23.2c-3.9-94.5-73.3-374.2-181.3-725.3c-69.4-227.6-127.3-424.4-127.3-441.8c0-15.4-30.9-156.3-67.5-310.6c-86.8-358.8-164-517-345.3-711.9c-137-146.6-410.9-349.2-436-320.2c-7.7,7.7-34.7,94.5-59.8,189.1c-46.3,177.5-54,302.9-34.7,638.5c7.7,154.3,5.8,160.1-77.2,322.2c-67.5,135-86.8,198.7-102.2,326c-30.9,270.1-34.7,283.6-94.5,353c-86.8,98.4-204.5,135-422.5,133.1c-100.3-1.9-243.1-17.4-318.3-34.7c-254.6-61.7-302.9-61.7-414.8,0C4360.2-100.3,4283-9.6,4230.9,129.3c-90.7,243.1-59.8,673.3,63.7,883.5c75.2,131.2,366.5,426.3,522.8,532.4c121.5,83,291.3,129.3,389.7,108C5239.8,1645.6,5299.6,1616.7,5340.1,1587.7z"/></g></g>
</svg>